<svg clip-rule="evenodd" fill-rule="evenodd" stroke-linejoin="round" stroke-miterlimit="2" version="1.1" viewBox="0 0 496 676" xml:space="preserve" xmlns="http://www.w3.org/2000/svg">
    <g transform="translate(-1672 -742)">
        <path d="m1685.4 1178.1v-44.2h139.68 0.37c39 0.13 73.48 19.3 94.5 48.64 21.09-29.43 55.72-48.64 94.87-48.64v44.21c-39.84 0-72.75 31.87-72.75 71.44v33.78h53.64c61.75 0 111.81-47.1 111.82-105.22h-92.71v-44.21h139.71v44.21h-0.02c0 82.53-71.1 149.43-158.8 149.43h-53.64v89.58h-44.22v-89.58h-53.65c-87.71 0-158.81-66.9-158.81-149.44h0.01zm46.98 0.01h92.7c39.84 0 72.77 31.92 72.77 71.5v33.72h-53.65c-61.75 0-111.81-47.1-111.82-105.22zm187.58 71.44h12.47l-7.64-0.01-4.83 0.01zm2.97-506.73-216.87 186.56 31.9 37.083-31.9-37.083c-40.97 35.244-45.62 97.015-10.39 137.98 35.24 40.96 97.01 45.6 137.98 10.35l-31.89-37.08c-20.49 17.62-51.38 15.31-69-5.17-17.61-20.48-15.29-51.37 5.2-68.992l185.91-159.92 179.04 162.23c20.02 18.144 21.55 49.086 3.41 69.096-18.14 20.02-49.08 21.54-69.1 3.4l-115.03-104.24-120.43 103.6 31.89 37.08 87.69-75.43 83.04 75.24 32.84-36.25-32.84 36.25c40.05 36.29 101.92 33.25 138.2-6.79s33.22-101.92-6.83-138.2l-32.84 36.248 32.84-36.248-212.82-189.7z" fill="#ff385c"/>
    </g>
</svg>
