<svg clip-rule="evenodd" fill-rule="evenodd" stroke-linejoin="round" stroke-miterlimit="2" version="1.1" viewBox="0 0 920 348" xml:space="preserve" xmlns="http://www.w3.org/2000/svg">
    <g transform="translate(-1460 -906)">
        <path d="m1467.8 1130.5v-22.76h71.93 0.19c20.09 0.07 37.84 9.94 48.67 25.05 10.85-15.16 28.69-25.05 48.85-25.05v22.77c-20.52 0-37.46 16.41-37.47 36.79v17.39h27.63c31.8 0 57.58-24.25 57.58-54.18h-47.74v-22.77h71.95v22.77h-0.01c0 42.5-36.62 76.95-81.78 76.95h-27.63v46.13h-22.76v-46.13h-27.63c-45.17 0-81.78-34.45-81.78-76.96zm24.19 0.01h47.74c20.52 0 37.48 16.44 37.48 36.82v17.36h-27.63c-31.8 0-57.58-24.25-57.59-54.18zm96.6 36.79h6.42l-3.93-0.01-2.49 0.01zm742.96-92.17c13.6 0 19.98 8.65 22.45 17.1l24.52-8.24c-4.33-17.1-19.98-34.2-47.59-34.2-29.45 0-52.52 22.46-52.52 53.77 0 31.1 23.48 53.76 53.35 53.76 26.98 0 42.84-17.3 47.38-34.2l-24.11-8.03c-2.26 7.83-9.27 17.1-23.27 17.1-14.01 0-25.96-10.3-25.96-28.63 0-18.34 11.75-28.43 25.75-28.43zm-120.29-25.34c-30.28 0-53.15 22.46-53.15 53.77 0 31.1 22.87 53.76 53.15 53.76s53.14-22.66 53.14-53.76c0-31.31-22.86-53.77-53.14-53.77zm-74.78 104.44v-149.14h-27.39v149.14h27.39zm-137.8 0v-101.35h-27.4v101.35h27.4zm91.04-101.76c-2.06-0.2-4.12-0.41-6.38-0.41-8.65 0-22.66 2.47-28.84 15.86v-15.04h-26.57v101.35h27.39v-46.35c0-21.83 12.16-28.63 26.16-28.63 2.48 0 5.15 0.21 8.24 0.82v-27.6zm-166.02 101.76h30.9l-55.62-146.05h-32.96l-56.03 146.05h30.08l12.15-33.37h59.33l12.15 33.37zm287.56-21.84c-13.39 0-25.75-9.88-25.75-28.83 0-19.16 12.36-28.84 25.75-28.84 13.38 0 25.74 9.68 25.74 28.84 0 19.15-12.36 28.83-25.74 28.83zm-329.38-92.69 20.19 55.2h-40.37l20.18-55.2zm-291.76-133.35-111.68 96.073 16.43 19.1-16.43-19.1c-21.1 18.15-23.49 49.96-5.35 71.05 18.14 21.1 49.96 23.48 71.06 5.33l-16.43-19.09c-10.55 9.07-26.46 7.88-35.53-2.67-9.07-10.54-7.87-26.45 2.68-35.52l95.73-82.361 92.2 83.541c10.32 9.35 11.1 25.28 1.76 35.59s-25.27 11.09-35.58 1.75l-59.24-53.68-62.02 53.35 16.43 19.09 45.15-38.84 42.76 38.74 16.92-18.66-16.92 18.66c20.63 18.69 52.49 17.12 71.17-3.49 18.68-20.62 17.11-52.49-3.51-71.17l-16.92 18.66 16.92-18.66-109.6-97.693zm377.87 113.37c0 9.06 7.62 16.68 16.89 16.68 9.47 0 16.89-7.62 16.89-16.68 0-9.48-7.42-17.1-16.89-17.1-9.27 0-16.89 7.62-16.89 17.1z" fill="#fff"/>
    </g>
</svg>
